<?xml version="1.0" encoding="utf-8"?>
<!-- Generator: Adobe Illustrator 22.1.0, SVG Export Plug-In . SVG Version: 6.00 Build 0)  -->
<svg version="1.1" xmlns="http://www.w3.org/2000/svg" xmlns:xlink="http://www.w3.org/1999/xlink" x="0px" y="0px"
	 viewBox="0 0 1080 1080" style="enable-background:new 0 0 1080 1080;" xml:space="preserve">
<style type="text/css">
	.st0{fill:#FFF4E0;}
	.st1{fill:#F9F9E8;}
</style>
<g id="BG">
	<g>
		<g>
			<g>
				<path class="st0" d="M775.1,669.4c-2.2-0.4-5-0.4-8.3-0.2c-3.2,0.3-5.6,0.2-7-0.3c-1.4-0.5-2.3-1.8-2.6-3.7
					c-0.3-2.3,0.1-4.4,1.4-6.2c1.3-1.9,3.1-3.3,5.6-4.3c4.1-1.6,8.2-1.3,12.1,1l1.4-7.5c-1.8-1.3-4-2-6.6-2.1
					c-2.6-0.1-5.2,0.4-7.9,1.4c-3,1.1-5.5,2.8-7.5,5c-2.1,2.2-3.5,4.6-4.4,7.4c-0.9,2.8-1.1,5.6-0.7,8.5c0.6,4.1,2.2,6.8,4.7,8.1
					c2.5,1.3,6.3,1.7,11.3,1.2c3.2-0.3,5.6-0.2,7.1,0.3c1.5,0.5,2.4,1.7,2.7,3.5c0.3,2.2-0.2,4.2-1.4,6c-1.3,1.8-3.2,3.2-5.9,4.2
					c-2.4,0.9-4.7,1.3-6.9,1.3c-2.2-0.1-4.3-0.7-6.5-1.8l-1.4,7.5c2.1,1.2,4.5,1.8,7.2,1.9c2.7,0,5.6-0.5,8.5-1.6
					c3.1-1.2,5.8-2.9,7.9-5c2.1-2.1,3.6-4.5,4.5-7.2c0.9-2.7,1.1-5.5,0.7-8.5c-0.4-2.7-1.3-4.7-2.6-6.1
					C779.1,670.7,777.3,669.8,775.1,669.4z"/>
			</g>
		</g>
		<g>
			<g>
				<polygon class="st0" points="821.7,625.6 824.7,646.5 805,654.1 801.9,633.2 795.1,635.9 802.4,685.7 809.3,683 806.1,661.4 
					825.8,653.8 829,675.5 835.9,672.8 828.6,623 				"/>
			</g>
		</g>
		<g>
			<g>
				<path class="st0" d="M874.9,607.8c-3.1-1-6.5-0.8-10.2,0.7c-3.7,1.4-6.8,3.7-9.3,6.8c-2.5,3.1-4.1,6.9-5,11.3
					c-0.9,4.4-1,9.2-0.2,14.4c0.8,5.2,2.2,9.5,4.3,12.7c2.1,3.3,4.6,5.4,7.7,6.4c3.1,1,6.4,0.8,10.2-0.6c3.8-1.4,6.8-3.7,9.3-6.9
					c2.4-3.1,4.1-6.9,5-11.3c0.9-4.4,1-9.2,0.2-14.5c-0.8-5.2-2.2-9.4-4.2-12.7C880.5,610.9,877.9,608.8,874.9,607.8z M878.8,644.3
					c-1.5,3.9-4.1,6.6-7.6,8c-3.6,1.4-6.6,0.9-9-1.6c-2.5-2.4-4.1-6.6-5-12.5c-0.9-5.9-0.6-10.8,1-14.7c1.5-3.9,4.1-6.5,7.6-7.9
					c3.6-1.4,6.6-0.9,9,1.5c2.4,2.4,4.1,6.5,5,12.4C880.6,635.5,880.3,640.4,878.8,644.3z"/>
			</g>
		</g>
		<g>
			<g>
				<path class="st0" d="M927.9,588.9c-2.7-1.7-6.1-1.8-10.2-0.2l-16.7,6.4l7.4,49.8l7-2.7l-3.1-20.8l9.7-3.7
					c4.1-1.6,7.1-4.1,9.1-7.6c1.9-3.5,2.6-7.5,1.9-12C932.3,593.7,930.6,590.6,927.9,588.9z M925.3,607c-1.1,1.8-2.8,3.1-5.2,4
					l-8.9,3.4l-2.2-15.1l8.9-3.4c2.5-0.9,4.4-1,5.8-0.2c1.4,0.8,2.3,2.4,2.7,4.9C926.7,603.2,926.3,605.3,925.3,607z"/>
			</g>
		</g>
	</g>
	<g>
		<path class="st0" d="M126.9,755c-25.3-5.1-46.6-16.1-63.9-33.3c-17.3-17.1-29.6-39.1-36.8-66c-10-37.3-11.8-72.2-5.4-104.9
			c6.4-32.7,19.4-60.1,39.3-82.4c19.8-22.3,44.5-37.3,73.9-45.2c27.4-7.3,50-5.8,68,4.5c18,10.3,30,27,36.2,50
			c4.1,15.5,4.7,28.6,1.8,39.5c-3,10.8-9.5,17.6-19.6,20.3c-7.1,1.9-13.1,1.7-18.1-0.5c-4.9-2.2-8.3-6.5-9.9-12.8
			c-0.6-2.3-1.2-6.6-1.8-13c-0.5-8-1.4-14.3-2.6-18.9c-6.2-23.1-21.5-31.3-46.1-24.8c-16.7,4.5-31.3,14.2-43.5,29.1
			c-12.3,15-20.3,34.3-24,58c-3.7,23.7-1.7,50.1,6.1,79.2c8.1,30.4,22.9,51.7,44.3,63.7c21.4,12.1,48.7,13.7,82,4.8
			c16.5-4.4,32.6-10.9,48.3-19.6c15.7-8.7,32.7-20.1,51-34.2c3.4-2.5,6.4-4.1,8.9-4.8c4.1-1.1,7.5-0.4,10.4,2.1
			c2.8,2.5,4.9,6.2,6.2,11c4.1,15.5-1.2,29.1-16,40.9c-15.9,12.7-33.1,23.4-51.5,32.3c-18.4,8.8-36.4,15.6-53.9,20.3
			C179.9,758.6,152.1,760.1,126.9,755z"/>
		<path class="st0" d="M484.3,555.5c2.7,2.8,4.7,6.8,6,11.8c3.3,12.2,1.5,20.4-5.2,24.6c-13.8,9.4-29.7,16.9-47.8,22.5
			c0.9,22.6-4.1,42.2-14.9,58.8c-10.8,16.6-25.2,27.3-43.2,32.1c-15.2,4.1-29.2,3.9-41.9-0.6c-12.7-4.5-23.5-12.1-32.3-22.7
			c-8.8-10.7-15.1-23.1-18.9-37.3c-5.1-19.3-6.1-37.4-2.7-54.5c3.3-17,10.3-31.5,21-43.5c10.7-11.9,23.9-20,39.6-24.2
			c19.3-5.1,36.6-2.6,51.9,7.5c15.3,10.2,26.6,24.7,33.9,43.7c11.7-3.9,25.2-10.3,40.6-19c1.9-1,3.6-1.8,5.1-2.2
			C478.7,551.7,481.6,552.7,484.3,555.5z M390,648.7c4.2-8.2,5.6-18.8,4.4-31.7c-9.3-3.2-17.2-8.6-23.6-16.1
			c-6.5-7.5-11-16.1-13.6-25.7c-1.1-4.1-1.8-8.2-2.1-12.5l-1.9,0.5c-10.1,2.7-17.3,9.8-21.4,21.4c-4.1,11.6-3.8,26.2,0.9,44
			c3.7,13.9,9.3,23.9,16.7,29.8c7.4,5.9,14.8,7.9,22.2,5.9C379.7,662.1,385.8,656.9,390,648.7z"/>
		<path class="st0" d="M741.3,509.7c5.4,20.3-8.1,34.8-40.5,43.4c-1.3,0.3-8.5,1.9-21.6,4.5c6.4,12.7,12.7,27.4,18.9,44
			c6.2,16.7,11.6,33.5,16.1,50.5c7.3,27.4,8.3,49.5,2.9,66.5c-5.4,16.9-15.3,27.3-29.8,31.2c-18.3,4.9-34.7-4.6-49.3-28.4
			c-14.6-23.8-28.9-61.8-42.9-114c-3.6-13.4-6.8-27.1-9.7-41c-2.2,0.9-5.9,2-10.9,3.3c-6.8,1.8-12.4,3.4-16.6,4.8
			c7.5,18.1,14.3,35.6,20.3,52.4c6,16.9,11.8,35.8,17.4,56.9c7.3,27.4,8.3,49.5,2.9,66.5c-5.4,16.9-15.3,27.3-29.8,31.2
			c-18.3,4.9-34.7-4.6-49.3-28.4c-14.6-23.8-28.9-61.8-42.9-114c-13.1-48.9-21.4-99.7-25-152.4c-3.6-52.7-1-97.7,7.7-135.1
			c8.8-37.4,24.2-59,46.2-64.9c11.4-3,21.6-0.7,30.6,7.1c9,7.8,15.9,20.5,20.6,38.3c7.4,27.6,8.2,60.4,2.4,98.2
			c-5.8,37.8-22.5,80.4-50,127.6c3.7,22.9,8.3,44.9,13.9,65.9c7,26.1,15,52.7,24.1,79.7c9.1,27,15.7,40,19.8,38.9
			c3.8-1,6-5,6.6-11.9c0.6-6.9-0.9-17.3-4.6-31c-6.6-24.9-13.5-46.6-20.5-65.2c-7-18.6-13.3-33.4-19-44.4c-1-1.6-1.9-4.2-2.9-7.8
			c-2.9-10.9-0.9-21.1,5.9-30.5c6.9-9.4,17.5-16.2,31.9-20.3l9.1-2.4l5.3-1.4c-6.4-43.4-9.1-85.1-8-125.2
			c1.1-40.1,6.5-73.7,16.3-100.7c9.8-27.1,23.8-43,42-47.9c11.9-3.2,22.7-0.3,32.2,8.5c9.6,8.9,16.8,22.3,21.6,40.3
			c6,22.3,8.4,48.4,7.4,78.3c-1,29.9-6.4,59.1-16.3,87.7c-9.9,28.6-24.5,52-43.8,70.2c2.8,17.5,6.6,35.3,11.4,53.6
			c7,26.1,15,52.7,24.1,79.7c9.1,27,15.7,40,19.8,38.9c3.8-1,6-5,6.6-11.9c0.6-6.9-0.9-17.3-4.6-31c-5.3-19.8-11.3-38.4-18.2-55.9
			c-6.8-17.5-12.9-31.6-18.2-42.4c-1.1-1.9-2.1-4.6-3-8.2c-2.8-10.4-1.6-20.1,3.6-29.3c5.2-9.1,12.3-14.9,21.4-17.3
			c8.6-2.3,16.5-4.7,23.5-7.3c7.1-2.6,11.6-4.2,13.5-5c8.3-3.3,13.8-5.3,16.3-6C733.5,494.7,738.5,499,741.3,509.7z M497.5,354
			c-2.1,17.1-2.8,39.3-2,66.5c0.8,27.2,2.8,55.9,6.2,85.9c13.2-28,21.1-56.6,23.7-86c2.6-29.4,1-54.9-4.8-76.7
			c-1.7-6.3-3.7-10.9-6.1-13.8c-2.4-2.9-4.7-4-7-3.4C502.9,327.7,499.6,336.9,497.5,354z M619.7,325c-2.5,19.7-3.4,44.8-2.7,75.3
			c0.7,30.5,2.8,61.7,6.5,93.6c11.4-15.3,19.6-33.7,24.5-55.4c4.9-21.7,7.1-43.6,6.5-65.7c-0.6-22.1-3.2-41.7-7.7-58.6
			c-4.1-15.5-9.4-22.3-15.7-20.7C626,294.8,622.2,305.3,619.7,325z"/>
		<path class="st0" d="M892.6,480.3c2.7,2.5,4.8,6.5,6.2,11.8c2.7,10.1,2.4,18.6-0.9,25.5c-6.3,13.9-16.8,28-31.3,42.2
			C852,574,835,583.7,815.5,588.9c-26.6,7.1-49.2,5.4-67.8-5.1c-18.6-10.5-31.2-28.3-37.9-53.4c-4.7-17.5-5.4-34.8-2-51.8
			c3.3-17,10.3-31.7,21-44.1c10.7-12.4,24.3-20.7,40.7-25.1c14.7-3.9,27.7-2.7,38.9,3.7c11.2,6.4,18.8,17,22.8,32
			c4.7,17.5,2.4,34.2-6.8,50.1c-9.2,15.9-27.8,31.5-55.7,46.9c9.4,10,23,12.6,40.8,7.8c11.4-3,23.3-10.5,35.8-22.4
			c12.5-11.9,22.3-25.7,29.5-41.5c2.1-4.4,5-7,8.8-8.1C886.9,476.9,889.9,477.8,892.6,480.3z M753.6,471
			c-3.6,12.6-3.3,26.7,0.9,42.1l0.2,0.8c14-7.5,24.4-16,31.1-25.4c6.7-9.4,8.8-18.8,6.3-28.2c-1.3-4.8-3.6-8.3-7.1-10.5
			c-3.4-2.2-7.4-2.7-12-1.5C763.6,450.8,757.2,458.3,753.6,471z"/>
		<path class="st0" d="M1042.1,440.4c2.7,2.5,4.8,6.5,6.2,11.8c2.7,10.1,2.4,18.6-0.9,25.5c-6.3,13.9-16.8,28-31.3,42.2
			c-14.5,14.2-31.6,23.9-51.1,29.1c-26.6,7.1-49.2,5.4-67.8-5.1c-18.6-10.5-31.2-28.3-37.9-53.4c-4.7-17.5-5.4-34.8-2-51.8
			c3.3-17,10.3-31.7,21-44.1c10.7-12.4,24.3-20.7,40.8-25.1c14.7-3.9,27.7-2.7,38.9,3.7c11.2,6.4,18.8,17,22.8,32
			c4.7,17.5,2.4,34.2-6.8,50.1s-27.8,31.5-55.7,46.9c9.5,10,23,12.6,40.8,7.8c11.4-3,23.3-10.5,35.8-22.4
			c12.4-11.9,22.3-25.7,29.5-41.5c2.1-4.4,5-7,8.8-8.1C1036.3,437,1039.3,437.9,1042.1,440.4z M903.1,431.1
			c-3.6,12.6-3.3,26.7,0.9,42.1l0.2,0.8c14-7.5,24.4-16,31.1-25.4c6.7-9.4,8.8-18.8,6.3-28.2c-1.3-4.8-3.6-8.3-7.1-10.5
			c-3.4-2.2-7.4-2.7-12-1.5C913.1,410.9,906.6,418.4,903.1,431.1z"/>
	</g>
	<g>
		<g>
			<path class="st0" d="M551.4,1018.2c-161.4,6.8-314.3-67.5-408.8-198.7c-6.3-8.7-4.3-20.9,4.4-27.2c8.7-6.3,20.9-4.3,27.2,4.4
				c86.9,120.6,227.3,188.8,375.6,182.6c104.6-4.4,204.4-46.1,280.9-117.4c75.7-70.5,124.3-165.5,136.9-267.6
				c1.3-10.7,11-18.2,21.7-16.9c10.7,1.3,18.2,11,16.9,21.7c-13.7,111.1-66.6,214.6-149,291.3C773.9,968,665.3,1013.4,551.4,1018.2z
				"/>
		</g>
	</g>
	<g>
		<g>
			<path class="st0" d="M101.1,400.5c-2.5,0.1-5.1-0.3-7.6-1.2c-10.1-3.7-15.2-14.9-11.5-25c32.3-87.5,89.1-163.2,164.3-219
				c77-57.1,168.5-89.5,264.7-93.6c118.3-5,233.7,33.7,324.9,109c8.3,6.8,9.5,19.1,2.6,27.4c-6.8,8.3-19.1,9.5-27.4,2.6
				c-83.8-69.2-189.8-104.8-298.5-100.2c-88.4,3.7-172.4,33.4-243.2,85.9c-69.1,51.2-121.3,120.8-150.9,201.2
				C115.7,395.3,108.7,400.1,101.1,400.5z"/>
		</g>
	</g>
	<g>
		<g>
			<path class="st0" d="M553.8,1073.9c-5.4,0.2-9.9-3.9-10.1-9.3c-0.2-5.4,3.9-9.9,9.3-10.1c124.4-5.3,242.5-55.3,332.7-140.9
				c89.3-84.8,145.3-198.6,157.8-320.5c0.5-5.3,5.3-9.2,10.7-8.7c5.3,0.5,9.2,5.3,8.7,10.7c-12.9,126.5-71.1,244.6-163.7,332.6
				C805.5,1016.5,682.9,1068.4,553.8,1073.9z"/>
		</g>
	</g>
	<g>
		<g>
			<path class="st0" d="M30.6,393.7c-1.1,0-2.2-0.1-3.3-0.4c-5.1-1.6-8-7.1-6.4-12.2C53.3,277,116.1,186.3,202.3,118.8
				c88.2-69,194.1-107.9,306.3-112.7c5.4-0.2,9.9,3.9,10.1,9.3c0.2,5.4-3.9,9.9-9.3,10.1c-108.1,4.6-210.2,42.1-295.1,108.5
				c-83.2,65-143.6,152.4-174.9,252.8C38.2,390.9,34.6,393.5,30.6,393.7z"/>
		</g>
	</g>
</g>
<g id="Badges">
</g>
</svg>
